<svg xmlns="http://www.w3.org/2000/svg" enable-background="new 0 0 24 24" viewBox="0 0 24 24"><path fill="#6766DB" d="M7.5,7h-7C0.224,7,0,7.224,0,7.5v8C0,15.776,0.224,16,0.5,16h7C7.776,16,8,15.776,8,15.5v-8C8,7.224,7.776,7,7.5,7z M5,15H4v-4.5C4,10.224,4.224,10,4.5,10S5,10.224,5,10.5V15z"/><path fill="#110638" d="M11.5,17h-4C7.224,17,7,16.776,7,16.5v-9C7,7.224,7.224,7,7.5,7h16C23.776,7,24,7.224,24,7.5v8c0,0.276-0.224,0.5-0.5,0.5H12v0.5C12,16.776,11.776,17,11.5,17z M8,16h3v-0.5c0-0.276,0.224-0.5,0.5-0.5H23V8H8V16z"/><path fill="#110638" d="M14.5 16c-.276 0-.5-.224-.5-.5v-8C14 7.224 14.224 7 14.5 7S15 7.224 15 7.5v8C15 15.776 14.776 16 14.5 16zM17.5 16c-.276 0-.5-.224-.5-.5v-5c0-.276.224-.5.5-.5s.5.224.5.5v5C18 15.776 17.776 16 17.5 16zM20.5 16c-.276 0-.5-.224-.5-.5v-5c0-.276.224-.5.5-.5s.5.224.5.5v5C21 15.776 20.776 16 20.5 16zM11.5 13c-.276 0-.5-.224-.5-.5v-2c0-.276.224-.5.5-.5s.5.224.5.5v2C12 12.776 11.776 13 11.5 13z"/></svg>